<?xml version="1.0" standalone="no"?><!DOCTYPE svg PUBLIC "-//W3C//DTD SVG 1.1//EN" "http://www.w3.org/Graphics/SVG/1.1/DTD/svg11.dtd"><svg t="1588841074311" class="icon" viewBox="0 0 1024 1024" version="1.1" xmlns="http://www.w3.org/2000/svg" p-id="1178" xmlns:xlink="http://www.w3.org/1999/xlink" width="200" height="200"><defs><style type="text/css"></style></defs><path d="M512 128a384 384 0 1 0 0 768 384 384 0 0 0 0-768zM42.666667 512C42.666667 252.8 252.8 42.666667 512 42.666667s469.333333 210.133333 469.333333 469.333333-210.133333 469.333333-469.333333 469.333333S42.666667 771.2 42.666667 512z" fill="#75C82B" p-id="1179"></path><path d="M285.738667 496.896a21.333333 21.333333 0 1 0 30.165333 30.208 21.333333 21.333333 0 0 0-30.165333-30.208z m-60.373334 90.538667a106.666667 106.666667 0 1 1 150.869334-150.869334 106.666667 106.666667 0 0 1-150.869334 150.869334zM496.896 708.096a21.333333 21.333333 0 1 0 30.208 30.165333 21.333333 21.333333 0 0 0-30.208-30.165333z m-60.330667 90.496a106.666667 106.666667 0 1 1 150.869334-150.826667 106.666667 106.666667 0 0 1-150.869334 150.826667zM708.096 496.896a21.333333 21.333333 0 1 0 30.165333 30.208 21.333333 21.333333 0 0 0-30.165333-30.208z m-60.330667 90.538667a106.666667 106.666667 0 1 1 150.869334-150.869334 106.666667 106.666667 0 0 1-150.869334 150.869334zM496.896 285.738667a21.333333 21.333333 0 1 0 30.208 30.165333 21.333333 21.333333 0 0 0-30.208-30.165333z m-60.330667 90.496a106.666667 106.666667 0 1 1 150.869334-150.826667 106.666667 106.666667 0 0 1-150.869334 150.826667zM469.333333 938.666667a42.666667 42.666667 0 0 1 42.666667-42.666667h426.666667a42.666667 42.666667 0 1 1 0 85.333333H512a42.666667 42.666667 0 0 1-42.666667-42.666666z" fill="#75C82B" p-id="1180"></path></svg>